<svg xmlns="http://www.w3.org/2000/svg" viewBox="0 0 64 64" role="img" aria-label="Larger JAH favicon">
  <defs>
    <radialGradient id="bg" cx="35%" cy="28%" r="78%">
      <stop offset="0%" stop-color="#1b1942" />
      <stop offset="100%" stop-color="#04050b" />
    </radialGradient>
    <linearGradient id="leftAccent" x1="8" y1="18" x2="30" y2="40" gradientUnits="userSpaceOnUse">
      <stop offset="0" stop-color="#a7baff" />
      <stop offset="1" stop-color="#7286ff" />
    </linearGradient>
    <linearGradient id="rightAccent" x1="34" y1="18" x2="57" y2="40" gradientUnits="userSpaceOnUse">
      <stop offset="0" stop-color="#78beff" />
      <stop offset="1" stop-color="#34cff4" />
    </linearGradient>
    <linearGradient id="slashAccent" x1="31" y1="16" x2="41" y2="44" gradientUnits="userSpaceOnUse">
      <stop offset="0" stop-color="#8cc5ff" />
      <stop offset="1" stop-color="#3dcaf6" />
    </linearGradient>
  </defs>

  <circle cx="32" cy="32" r="31" fill="url(#bg)" />

  <path d="M22.8 20 10 28l12.8 8" fill="none" stroke="url(#leftAccent)" stroke-width="6" stroke-linecap="round" stroke-linejoin="round" />
  <path d="M41.2 20 54 28l-12.8 8" fill="none" stroke="url(#rightAccent)" stroke-width="6" stroke-linecap="round" stroke-linejoin="round" />

  <path d="M29.8 17.5h8v18c0 5.1-3.4 8.3-8.9 8.3-5 0-8.4-2.6-9.3-7l6.2-1.5c.4 2 1.5 3 3.1 3 1.8 0 2-1.4 2-3.2V17.5Z" fill="#f4f7fb" />
  <path d="M33.4 41.5 39 17.2" fill="none" stroke="url(#slashAccent)" stroke-width="3.6" stroke-linecap="round" />
</svg>
